<svg xmlns="http://www.w3.org/2000/svg" xmlns:xlink="http://www.w3.org/1999/xlink" viewBox="0 0 4288 3039">
  <g id="little_flip" style="isolation: isolate">
    <path d="M2786,1132c-9.48.9-9.78,3.82-22,3-6-9.14-13.55-14.53-21-22-4.71-4.73-7.56-13.18-13-17-6.93-4.86-12.46-10.35-19-15-2.77-2-6.14-2-9-4-2.42-1.69-2.25-4.51-4-7-2.13-3-6.52-4.32-9-7-4.17-4.5-5.67-11.67-10-16-5.45-5.45-14.34-5.56-21-10-12.92-8.62-26.72-30.56-42-35h-16c-3.27-1-6.56-5-10-6h-18c-8.43-2-21.57-2.06-30,0-7.33,1.79-15.8-1.36-22,1-4.05,1.54-6.62,6-10,8l-10,3c-10.74,6.86-21.77,15.14-32,23l-12,16c-5.13,3.57-12.44,3.9-17,8-3.41,3.06-4.84,9.83-9,12l-8,1c-5.47,2.21-12.71,8.45-18,11-6.31,3-14.91.18-20,4-2.4,1.81-3.47,6.15-6,8-3.47,2.54-8.28,3.8-11,7s-5.08,9-9,11l-10,1c-1.56.48-16.15,7-17,8-4.61,5.47-4.9,14-9,20-2.52,3.69-7.91,3.93-11,7-5.21,5.18-2.31,10.49-13,11-3.35-2.29-7.76-1.17-12-3-16.29-7-43-14.73-65-15,5.22-29.74,25.53-49.35,47-63,8.54-5.43,16.59-8.67,23-16,7.47-8.54.26-20.37,6-29,2.38-3.58,7.18-5.83,10-9,10.34-11.62,18.75-24.34,28-37,5.92-8.1,16.87-13.87,24-21,7.38-7.38,14.46-14.76,22-22,1.56-1.5,3.11-5,5-6,3.7-1.94,6.82-.93,10-3,4.08-2.66,7.84-8.82,12-11s7.78-1.17,11-4c21.94-19.29,38.09-39.1,71-48,4.77-1.29,28.37-3,34-1,5,1.77,8.34,8.54,13,11s10.06,1.41,15,4c1.89,1,3.36,4.62,5,6,3,2.53,7.42,1.84,11,4,3.94,2.38,6.76,7.84,11,10l11,2c5.89,2.59,12.32,8.7,18,11l8,1c10.2,5,17,15.92,26,22,5.88,4,11.2,4.43,18,8,2.85,1.5,5.14,6.28,8,8,3.58,2.15,8.05,1.42,11,4,1.69,1.48,2.4,4.4,4,6,4.41,4.41,10.3,7.94,14,13,1.13,1.55.75,3.6,2,5,6.14,6.9,15.42,14.38,23,20,5.26,3.9,8.36,11.35,13,16,2.27,2.27,5.9,3.6,8,6,2.36,2.7,1.4,5.2,3,9,1.34,3.2,5.24,5.35,7,8q2,6,4,12c3,5.19,7.64,14.63,12,19,2.76,2.76,8.11,3.42,10,7C2784.67,1090.74,2786,1115.4,2786,1132Z" />
  </g>
  <g id="inside" style="isolation: isolate" class="shoepart">
    <path d="M3394,1316c3.47.13,8,.33,10-1,6.71-2.32,10.1-9.74,15-14,3-2.57,7.45-1.83,11-4,2.5-1.53,3.92-5,6-7v-4c10.45-.86,18.7-9.5,25-15,3.3-2.88,8.71-3.1,12-6,5.85-5.15,12.74-13.63,19-18,4.25-3,9.61-4.27,13-8s4.11-8.71,7-13c4.15-6.15,9.76-7.15,10-18,2.33-.2,2.83-.19,4-1,4.8-1.39,11.41-6.33,13-11,2-2.74,2.74-7.74,3-12,2.33-.2,2.83-.19,4-1,6.84-2.34,13.14-10.23,18-15v-8l7-1c1.81-2.93,4.36-7.79,7-10l3-1c3.12-4.31,3.06-9.82,6-14,4.28-6.09,13.55-8.29,18-14,4.21-5.4,8.12-11.28,13-16v-4c12.71-.14,37.52-22.29,48-28,3.34-1.82,7.3-1.14,11-3s7.59-6,11-8l9-2c2.92-1.5,5.82-5.71,9-7l13-2c2.23-.72,4.78-3.23,7-4,6.89-2.38,15.92.82,24-2,4-1.39,7.73-6.61,12-8,7.64-2.49,12.42,3.32,19,2,7.69-1.54,16-4.22,23-6h11c4.85-1.38,5.29-3.78,11-3a15.61,15.61,0,0,1,1,5c1.07,2.26-.74,7.19-1,12-14.22,0-14.17,12.19-21,22-5.54,8-16.77,11.3-22,20-.67,2.67-1.33,5.33-2,8-1.9,3.26-6.58,6.47-8,10s.81,5.49,0,8c-.37,1.16-3.44,4.61-4,6v4c-3.12,6.16-9.18,14-13,20-2.69,4.22-2.61,9.42-5,14-7.79,14.93-23.34,25.62-33,39-6.05,8.39-9.08,18.47-15,27-4.2,6-11.14,11.49-16,17-1.74,2-1.53,4.7-3,7a203.71,203.71,0,0,1-15,19c-3.19,3.48-9.09,5.36-12,9-5.43,6.81-4.37,18.62-10,25-10.55,12-24.72,20.72-36,32-7.64,7.64-22.35,25-31,30l-13,2c-8.17,4.06-11.37,8.67-25,9-.21,3.69-6.7,16-9,17-5.7,3.31-12.22-2.23-19,0-2.9,1-5.59,4.53-8,6-4.73,2.88-10.68,3-15,6l-3,4c-4.46,2.63-11.25,1.28-16,4-2.16,1.23-4,4.81-6,6-4.05,2.39-9.93,1.43-14,4l-4,5c-3.5,2.29-18.46,8.83-22,10l-12,1c-7.49,2.83-15.82,9-24,12-4.1,1.51-11,.2-15,2-2.17,1-4.28,5-7,6-7.17,2.77-12.76,2.15-18,6,.71,2.35,1,2.23,2,4-27.42,2.13-55.73,7.4-82,1-6.49-1.58-11.56,2.58-16,2-2.66-.35-5.7-3.34-8-4-11.5-3.29-24.44.89-36-2-23.79-6-49-7.48-70-15-6.4-2.29-12-1.34-18-4-10.67-4.76-22.92-11-33-16-4.36-2.17-8.89-1.64-13-4-7.89-4.52-16.9-11.8-25-16-4.29-2.23-8.94-1.6-13-4-2-1.19-3.89-4.7-6-6-2.56-1.58-5-.46-8-2-5.66-2.88-10.73-9.48-16-13-6.76-4.51-12.79-6.7-20-11-5.3-3.16-10.44-10-15-14-3.21-2.84-7.4-3.52-11-6-1.94-1.33-3.23-4.48-5-6-5.51-4.73-12.66-7.13-18-12-10.72-9.79-21.13-20.38-32-30-2.95-2.61-7.12-3.36-10-6-15.74-14.4-29.63-32.09-45-47v-4c-2.72,0-4.6,0-6-1-7.89-2.51-18.75-14.64-25-20-3-2.58-7.1-3.35-10-6s-4.92-7.26-8-10c-2.93-2.61-7.12-3.37-10-6-9.3-8.51-16.43-19.77-26-28-3.95-3.4-8.75-4.93-13-8-2.74-2-4.5-5.8-7-8-4.94-4.34-18.07-11.13-24-14-4-1.93-10.59.56-13-3,3-2.78,5.54-5.57,6-11-3.31-3.1-9.45-7.41-12-11-2.12-3-2.38-6.64-5-9-3.32-3-9.59-3.18-12-7s-2.74-8.07-6-11c-2.46-2.21-6.19-2.07-9-4-6.39-4.38-9.14-15.29-16-19l-6-1c-3.22-2.13-4.15-7.46-7-10s-7.56-1.75-11-4c-5.37-3.51-9.08-11.72-15-15-3.38-1.87-7.05-1.12-10-3-3.21-2-6.95-5.79-11-7h-8c-6.67-2.37-16.28-16.13-26-12-2.53,1.47-1.54.44-2,4-6.6-.7-6.44-3.63-14-4l-30,10c-6.29,4.09-11.86,10.79-18,15-3.47,2.38-8.09,3.1-11,6-4,4-6,10-10,14-2.75,2.72-7.52,4.07-10,7-4.09,4.84-7.78,13.57-13,17l-8,2c-.33,1-.67,2-1,3-3.52,4.3-9.71,9.52-14,13-2.81,2.28-7.16,1.76-10,4-4.09,3.23-8.41,10.78-13,13h-6c-3.13,1.19-7,4.91-10,7-3.81,2.68-7,8.3-13,6-5.07,2.68-10.51,9.06-16,11l-10,1c-2.58,2-4.07,6.24-7,8l-9,2c-6.08,3.41-5.42,10-15,11-5.69-5.74-13.5-9-15-19,2.26-1.74,14.59-13,16-15,4.48-6.24,4.81-14.68,11-19,7.6-5.3,22.43-5.47,29-12,2.91-2.88,3.63-7.53,7-10s8.29-3.8,11-7c1-1.15.87-4.13,2-5l20-4c5.41-2.64,13.45-8.73,19-11,4.06-1.66,7-.62,10-3,2.39-1.9,3.3-6.34,6-8,6.05-3.72,10.61-5.94,16-10,7.52-5.66,12.28-15.3,20-21s16.31-11.9,24-17l12-4c3.68-2.22,5.17-6.39,10-8,6.29-2.09,14.64.76,22-1,8.43-2,21.57-2.06,30,0h18c4,1.06,6.76,4.89,10,6h17c11.4,3.93,18.08,16.47,27,23,6.12,4.48,11.69,10.38,18,14l9,2c9,5.66,19.71,22.9,28,31,3.89,3.8,9.61,5.73,14,9l10,11c3.62,2.69,9.63,4.18,12,8,1.37,2.21.59,4,2,6,5.09,7.11,14,10.78,20,17,3.41,3.55,3.34,9.66,8,12l13,2c6.05,3.38,6.86,11.28,11,16,8.33,9.5,11.12,7.23,15,23,11.84.51,9.26,5.34,15,11,2.44,2.4,6.95,2.17,9,5,1.8,2.49,1.64,5.18,4,7,4.89,3.78,12.49,5.69,17,10,1.92,1.83,2.6,5.7,5,7,3.7,2,7.12.48,9,4,.67,3.33,1.33,6.67,2,10,3.72,5.93,12.21,8.58,16,14,5.09,7.28,8.22,14.53,14,21,10.14,11.35,27.92,14.49,40,24,6.29,5,2.12,17.2,13,21h10a124.6,124.6,0,0,1,12,5c4.4,2.64,7,9,12,11,5.23,2.11,14.26,0,19,3-1.83,1.57-1.4.88-2,4,6.56,8,12.45,17.2,22,22,9.08,4.56,19.85,5.43,30,9,4.2,1.48,7.63,6.56,12,8l11,1c7.49,3.5,16.73,10.37,25,13h56c3.33-.83,8.66-3.17,12-4h30c3.23-.8,12.37-.79,16-2,2.94-1,5.28-5,8-6h36c5.06-1.69,7.34-8.3,12-10h8c3-.8,7-3.23,10-4h14c3-1,5.27-5,8-6,4.16-1.57,6.85,0,10-2,1.28-.8,2.37-3.42,4-4,5.85-2.09,10.76,0,16-2,4.12-1.57,11.95-5.14,16-8l4-6h10c3.13-1.07,3.85-4.31,6-6C3380.33,1321.79,3392.14,1330.68,3394,1316Z" />
    <path d="M3402,1450h2v1C3402.25,1450.37,3403,1450.81,3402,1450Z" />
    <path d="M3400,1451h2v1C3400.25,1451.37,3401,1451.81,3400,1451Z" />
    <path d="M3390,1455h2v1C3390.25,1455.37,3391,1455.81,3390,1455Z" />
  </g>
  <g id="lace" style="isolation: isolate" class="shoepart">
    <path d="M1806,1438c0,1.67-7-1.67-7,0-6.42-.93-3.1,4.74-10,4-6.78,6.29-19.26,8.86-29.09,20.41,3.17,1.33,7.73,14.59,17.09,26.59,3.86,2.25,5.94,5.09,9,8,2.47,7.28,6,5.33,6,13,.75,2.17-.52,12.77-1,15-.6,2.81,3.79,5.52,2,8-2.46,3.42,1.71,11.07,3,14,8.82,20-10.7,34.59-23,38-10.85,3-18.25-4.52-24-7l-14-2c-5.27-3.14-9.2-9.43-14-13-7.36-5.46-14.88-9.39-22-15l-6-9c-5.1-4-14.47-7.67-18-13-.67-3-1.33-6-2-9-1.29-1.53-4.37-1.7-6-3-2.13-1.7-2.29-4.8-4-7-3.07-4-11.87-8.36-18-9-9.06,7-42.56,13.6-46,23-1.43,2-1.4,7,0,9,3.63,10.28,17.11,13.46,22,22,.7,1.22,4.8,12.32,5,13v13c2.71,9.91,9.21,13.93,10,28-6.6,8.15-12,17.37-22,22-8.93,4.14-21.24-2.34-29-1-17.72,3.07-36.13-3.36-48-12-2.26-1.64-3.76-5.53-6-7-4.08-2.68-9.42-2.06-14-4-2-.83-10-9-12-11-1.75.63-1,.19-2,1-11.12,3.28-10.75,15.62-25,16-2.3-2.92-12.11-9.37-15-8-8.87,2.42-3.84,7.24-8,14-3,4.83-7.53,2.67-8,11,7.52,6.31,31.78,28.47,26,43,1.1,3.21.48,14.33,2,19,9.1,12.93-9.08,36.14-21,42-7.7,3.78-18.46,2.78-28,2-6.58-9.52-19.55-10.55-29-17-11.75-8-20.16-21-30-31-6.5,1.42-7.62,4.51-15,5-3.92-6.4-15.57-27.84-9-38,3.26-9.58,15.14-14.67,22-21,3-2.81,4.94-7.21,8-10,4.54-4.14,11-6.38,16-10l3-4c5.9-3.5,12.56-4.14,18-8,9-6.37,19-19.32,32-21l10,2c9.43-13.88,23.92-21.56,38-31,3.3-2.21,6-6.46,10-8l10-1c17.83-6.11,36.24-15.18,52-23l9-2c5.85-2.84,5.8-9.64,10-14s11.37-5.88,16-10c1.66-1.47,2.36-4.51,4-6,2.78-2.52,23.42-13.78,27-15,11.38-3.88,30.7-1.25,42-4,5.3-1.29,12,1.31,16-1,3.78-2.19,5.85-7.13,9-10,4.59-4.18,12.79-5.54,16-11,.33-3.33.67-6.67,1-10,1.53-4.72,13.91-18.91,18-21l8-1c3.11-1.26,5.37-5.64,8-7,4.68-2.42,9.84-1.38,14-4,7.18-4.52,11.89-11.76,22-15h12c5.71-1.69,8.92-8.12,14-10,5.42-2,8.66-.62,13-3,6.75-3.7,10.64-12.14,17-16,3.16-1.92,6.38-1.68,9-4,3.38-3,5.39-8.29,9-11,5.83-4.38,13.58-6.19,19-11,3-2.66,5.4-8.11,9-10l9-2c6.23-3.09,15.21-7.7,22-10l10-2c5.1-2.61,8.89-7.81,15-10l15-2c3.52-1,7.38-4,11-5,4.22-1.11,8.92.9,12-1,6.09-3.76,8.89-11,13-17,2.36-3.45,7.12-4.11,10-7,1.24-1.24.93-3.54,2-5,2.06-2.81,16.45-17.67,19-19,6.77-3.54,12.17-2.14,20-5,2.75-1,5.29-4.88,8-6,13.3-5.49,26.63-8.45,38-16,7.89-5.24,13.66-14.15,22-19l6-1c3.81-1.53,15.69-9.08,19-12,8.55-7.54,12-23.25,23-29,5.68-3,10-2.54,16-5,2.71-1.12,5.25-5,8-6,3-1.11,5.68.36,8-1,3-1.76,4.59-5.59,7-8,8.1-8.09,18-17.08,31-20v1c-3.45,4.36-5,14.6-4,20,18.37,7.68,44.75,11,63,19,6.48,2.83,12.76.31,20,3,5.11,1.9,7.71,9.13,12,12,5.86,3.92,14,3.15,20,7,2.76,1.77,3.79,5.6,6,8,6,6.52,15.06,11.55,20,19s-.26,12.31,2,18c1.09,2.75,5.93,4.92,7,8,3.64,10.48-3.48,23.09-7,28-1.89,2.63-6.47,7.16-11,7-1.29,0-2.54-1.75-5-1-3.75,1.15-7.82,6.66-12,8-5.21,1.68-28.1.39-32-1-10.91-3.9-24-8.17-34-14-2.67-1.56-5-5.71-8-7-4.2-1.79-17.51-5.75-20-8-1.16-1-.88-3.88-2-5-3.46-3.46-11.56-9.21-16-11-3.29-1.32-5.42-.28-8-2l-6-7c-5-3.31-11.5-.48-17-3l-5-6c-11.51-5.17-29.69,2-31,13,4.9,3.18,8.14,8.89,13,12,1.52,1,3-.33,4,1,2.4,3.1,1.51,8.16,4,11,3.44,3.94,8.91,6.69,12,11l8,15c4.53,5.15,14.3,8.37,17,15,1.38,3.39,6.58,23.64,6,26-2.36,9.53-10.4,21.8-21,23-6.28,4.55-18.86,2.74-26,1h-16c-4.78-1.56-8.15-6.63-12-9l-10-3c-4.48-3-11.5-10.15-16-13-5.55-3.51-16.72-1.74-22-5-6.85-4.23-7.56-12.77-18-14-4.4,3-9.83,3.91-14,7l-10,11c-3.51,2.6-8,2.86-10,7-.75,1.07-.6,1-1,3l15,16c7.49,5,17.38,6.43,22,14,2.81,4.6,3.39,8.26,6,13,1.56,2.82,5.91,5.83,7,9,2.19,6.34-.2,11.38,3,16l6,4c2.91,5.5.07,14.93-1,19v11c-2.68,9.21-14.57,21.82-25,23-4.52,2.92-26.53-2.76-30-5-1.86-1.2-3.67-4.06-6-5-5.69-2.29-11.44-1.74-16-5-5.13-3.67-8.62-11.39-14-15-2.49-1.67-5-.44-8-2s-3.7-5.69-6-8c-5.42-5.42-14-8.26-20-13l-6-8c-3.94-2.77-8.18-5.84-12-8l-6-2c-2.59-2.41-3-6.88-6-9-9-6.42-53.56-12.06-57,4,3,3.33,4,8.67,7,12,1.67,1.26,11.7.48,13,2a30.7,30.7,0,0,0,5.86,12.79c4.47.94,3.82,4.67,7.14,7.21,2.57,4.67,3.06,5.24,5,11,1,3,3,5.62,4,9-.33,4.33.33,6.67,0,11,.16.45,2,4.27,2,5,.19,6.47.08,14.84-1,18,0,3.67-3,1.33-3,5-2.79,8-13.4,15.75-21,19-12.26,5.25-38.23.14-46-5l-4-5c-2.51-1.67-5-.46-8-2s-5.25-6.26-8-8l-10-3c-2.71-1.8-4.46-5.84-8-7-3.33.33-7.33,2.81-12-3C1811.48,1444.73,1813.71,1442.6,1806,1438Z" />
  </g>
  <g id="around_lace" style="isolation: isolate" class="shoepart">
    <path d="M1564,1754c-23.32-.68-40.32,7.93-56,15-4.85,2.19-8.79,1.19-14,3-8.28,2.88-20.09,7.52-28,11l-12,2c-10,3.63-20.69,5.9-32,10-31.46,11.41-66.57,17.89-102,27-10.08,2.59-34.73,0-42-2-9.73-2.67-19.21-1.19-28-5-12.28-5.32-27.1-10.5-38-18-5.1-3.51-8.66-9.63-13-14-8.08-8.14-19-17.15-19-33,3.32-3.31,5.43-8,9-11,7.22-6.15,21.4-10.1,31-14,8.11-3.3,15.73-10.38,24-14,20.27-8.87,40-14.17,59-24,10.73-5.55,23.88-20.42,38-18,4.19,9.91,3.65,22,17,23,3.24-2.42,7.8-3.78,13-4,6.45,11.21,23.16,29.79,35,35l11,1c4.07,2,7,7.56,12,9,24.8,7.1,42.33-17.07,47-31,2-6-1.13-14.67-2-18v-23c-.32-.93-2.59-2.28-3-3a179.75,179.75,0,0,0-12-19l-10-9c-3.18-4.84-4.63-10.94-7-16,6.79-.64,7.46-1.39,14,0-.14-6.57,1.19-9.42,6-11,1.18-.8,1.68-.77,4-1,4,4.22,10.39,8.59,18,9,4.87-6.61,12.34-11.14,18-17,8,.31,16.36,4.74,21,9,6.06,5.56,22.41,19.38,30,22,10.18,3.51,23.32,3.64,32,2,7.06-1.33,16.56,4.7,26,2,10.14-2.9,24-14.91,25-27-2-2.89-.52-5.92-2-10-1.22-3.38-5.68-6.48-7-10-3.75-10-1-20.44-6-29-8.11-14-29.19-9.07-31-31,5.3-1.38,7.8-5.09,12-7,9.53-4.33,19.25-5.33,28-10,3.7-2,12.5-7.25,16-6,5.45,3.36,4.07,14.1,9,18,11,8.68,19.7,19.66,28,31,3.1,4.24,7.22,5.19,12,8,5.88,3.46,10.85,10.89,17,14s18.17,5.35,25,7h20c1.72.4,6.75.91,9,2l3,4c10.76,4.53,22.16-7.08,23-14-3.18-4.87,3.2-12.49,6-15-1.33-5.19-4.71-8.9-6-14-2.71-10.71,3.4-26-1-35-4.11-8.43-12.84-12.07-18-19-1.1-1.47-.76-3.71-2-5-1.77-1.83-5.89-2.61-7-5v-8c-.61-1.9-2.33-4.24-3-7,8.57-5.19,34.61-25.08,43-24,9.51,1.23,12.45,10.92,20,13,20.9,5.76,37.78,23.17,60,31,4.86,1.71,7.36-.12,11-1h14c12.33-3.26,17.44-10.84,24-20l5-4v-18c-4.66-5.37,0-8.69-2-16-.12-.44-8.66-20.6-9-21-3.07-3.64-7.39-6.82-10-11-1.74-2.77-1.73-6.82-4-9-2.42-2.32-7.2-2-12-2-1-.8-.27-.35-2-1-1.46-7.09-4.44-9.19-9-13,8.22-.79,12.17-5.36,18-8,12-5.45,20.63-.29,30,3l10,1c4.44,2.27,6.23,9.09,10,12,5,3.86,11.06,5.33,16,9l8,9c5.19,3.9,10.54,6.2,16,10,2.62,1.83,3.59,6.08,6,8,3.66,2.92,9.51,2.94,13,6,4.51,3.94,8,10.68,13,14l16,5c2.41,1.22,5.43,5.38,8,6h1v-1c5.38-1,11.75-1.9,16-3h15c3.46-1.16,6.67-5.74,10-7,3-1.13,2.89,1.11,5,0,2.86-3.64,10.2-28.48,6-35-1.8-5.34-7.34-7.21-9-12v-12c-.58-1.68-10.5-15.9-12-17-1.95-1.43-3.77-.64-6-2-6.72-4.12-16.55-18.25-23-24-4.88-4.35-9.57-3.83-11-12,4.29-2.58,11.1-4.67,15-8,10-8.55,15.89-17,30-22,.5,24.16,18.09,15.28,32,24,4.47,2.81,11.55,10.07,16,13l10,3c3.84,2.35,7.21,7.48,12,9h16c26.17,6.19,49.24-7.52,49-34-1.73-1.71-6-6.06-7-8-.67-3.33-1.33-6.67-2-10-3.14-4.85-10.94-6.8-14-12-2.44-4.15-1.06-9.64-4-13-3.94-4.51-9.95-7.58-14-12-3-3.32-3.45-7-6-11-2-3.14-7.42-3.39-10-6-1.24-1.25-.91-3.55-2-5-2.2-2.93-6.15-3.69-9-6h2c4.7-4.5,17.16-11.92,26-12,1.5,1,4.3.91,6,2l5,6c2.42,1.18,6.5-1.67,11,0,5.68,2.12,8.68,8.77,14,11,4,1.68,6.76.85,10,3l3,4c2.4,1.72,5.93,2,8,4,1.12,1.1.85,4,2,5,2.49,2.25,15.8,6.23,20,8,3,1.28,5.33,5.45,8,7,8.16,4.74,16.72,6.5,26,10,6.94,2.62,27.23,9.14,40,5,4.19-1.36,8.23-6.81,12-8,4.11-1.3,6.19,2.3,10,0,5-3,17.14-22.16,13-34-1.08-3.09-5.89-5.25-7-8q.49-6,1-12c-2.1-6.68-20.43-24.54-26-30-4.2-4.12-12.23-4.43-16-9,5.79-1.88,6.53-7.47,11-10l9-2c2.93-1.76,4.42-6,7-8l10-1c4.93-1.82,10.19-9,15-11,2.22-.93,4.58,1.62,8,0,4.95-2.35,9-9.16,14-12,2.2-1.26,5.32.31,8-1,4.48-2.18,8.9-9.8,13-13,2.86-2.23,7.19-1.72,10-4,1.85-1.51,10.75-9.4,12-11s1.28-3.88,3-5l8-2c4.4-3.2,7.68-10.52,11-15,2.95-4,8.49-5.55,12-9,4-4,6-10,10-14,2.5-2.5,5.95-3,9-5,15.87-10.66,29.88-25.29,56-26,2,2.67,3.56,3.64,8,4v-4c1.75-.63,1-.19,2-1,4.88,1,11.48,1.64,16,4,3.5,1.82,5.91,7.55,10,9l12,1c3.66,1.61,6.62,6.38,10,8,5.89,2.82,9.21,2.66,14,6,3.3,2.3,4.88,7.73,8,10s8.13,1.45,11,4,4,7.83,7,10l6,1c5.16,2.81,9.37,11.31,13,16,2.84,3.67,8.55,3.91,12,7,3.84,3.44,4.64,9,8,13l10,5c2.62,2.36,2.89,6,5,9,4.15,5.86,11.08,5.17,12,15-3.79,3.09-7.23,9.23-12,11h-6c-8.55,2.37-18.83,4.92-27,9-16.8,8.39-33.13,18.07-49,28-6.67,4.17-11.68,11.64-18,16-8.52,5.88-19.09,9.28-27,16-10.05,8.54-20,18.45-31,26-4.69,3.22-10.46,7.67-15,10-3.67,1.88-7.77,1-11,3-11.53,7.25-23,13.82-35,21-14.55,8.73-26,23.32-41,32-5.43,3.13-11.15,3.09-17,6-6.5,3.24-12.71,8.73-19,12-4.05,2.1-8.78,1.82-13,4-3.49,1.8-7.57,6.37-11,8l-17,4c-20,9.26-42.23,15.64-62,26-11,5.78-21.06,15.17-31,22-3.6,2.47-7.79,3.16-11,6-2.48,2.19-4.24,6.09-7,8-21,14.52-39.81,29.9-59,46-6.77,5.68-15.58,8.07-23,13-7.23,4.8-14.53,12.51-22,17-27.24,16.36-60.6,27.15-92,39-4.86,1.83-8.69.35-14,2-2.67.83-5.74,4-8,5-8.14,3.52-17.32,2.31-25,6-28.41,13.64-55.34,28.36-80,46-5.22,3.73-9.62,10.73-15,14-3.17,1.92-6.37,1.69-9,4-2.48,2.19-4.24,6.1-7,8-3.62,2.5-7.72,3.19-11,6-4.39,3.76-9.82,7.88-14,12-.93.92-1,3.15-2,4-2.5,2.2-6.08,2.17-9,4-5,3.11-9.31,8.59-14,12-1.55,1.13-3.59.75-5,2-5.91,5.26-9.74,11.91-20,13-1.91-1.91-5-3-7-2-6.62,1.69-15.48,8.08-21,11l-13,1c-2.23.76-4.25,4.14-6,5l-18,3c-7.11,2.17-16,6-22,8h-8c-5.39,1.45-12.35,4.46-18,6l-10,1c-30.94,11.08-64.76,17.85-93,32-3.86,1.93-7.62,7.45-11,9h-10c-1.65.54-4.35,3.45-6,4h-8c-4.72,2-8.45,8.51-12,12Z" />
  </g>
  <g id="over_logo" style="isolation: isolate" class="shoepart">
    <path d="M2852,1248c.2,2.33.19,2.83,1,4,3.28,9.61,15.18,16.42,22,23,7.72,7.45,14,16.88,22,24,6.83,6.08,15.27,9.84,22,16,2.35,2.14,3.63,5.89,6,8,2.93,2.61,7.12,3.37,10,6a296.58,296.58,0,0,0,33,26c5.34,3.68,9.66,10.17,15,14,8.73,6.25,18.14,10,27,16,9.07,6.2,19.06,14.54,29,20,4.32,2.37,8.31,1.62,13,4,8,4.08,17,11.67,25,16,4.4,2.39,8.1,1.78,13,4,11.78,5.34,25.23,13.27,38,18,19.9,7.37,43.4,9.78,64,15,11.5,2.91,20.47-.82,32,2,5.11,1.25,14.88.17,22,2,2.49.64,5.78,3.62,8,4,4.33.73,9.56-3.54,16-2,11.34,2.72,29.86,4.53,40,2h22c17.32-4.37,34.94-6.58,50-13l14-2c6.49-2.46,14-8.58,20-11,4.73-1.91,8.91-.1,14-2,3.76-1.4,6.24-6.6,10-8,5.75-2.14,10.19-.53,15-3,6.14-3.16,12.62-9.46,19-12l9-2c4.31-2.23,8.2-7.16,13-9s8.78-.82,13-3c11.4-5.88,23.13-15,39-17,12.26-1.54,19.74,14.58,28,18h18c7,1.7,9.28,5.56,18,6v5c3.67,1.28,6.26,4,9,5,8.57,3.18,21.09.49,23,10-36.6,6.59-66.31,23.86-98,35-9.3,3.27-18.56-1.48-27,2-15.26,6.28-35.43,12.49-53,17h-16c-3,.78-7,3.22-10,4h-12c-4.09,1.21-8.37,5.42-12,7l-30,5c-1.68.58-4.33,3.37-6,4l-19,3c-4.28,2-8.65,7.49-13,9-9.41,3.26-23.07-1.29-32,2-3.38,1.24-6.5,5.62-10,7-5.58,2.21-14.86.9-20,3-7.29,3-16.32,9.71-24,13l-16,1c-3,.77-7,3.28-10,4-5.92,1.41-8.75-3.31-14-2-3.8,1-15,8.35-20,10h-8c-8.87,2.3-21,6.53-30,8-2.17.35-4.79-2.31-8-1-2.75,1.13-4.9,5.92-8,7h-20c-4.41,1.27-10.86,4.7-16,6a135.83,135.83,0,0,1-16,2c-1-.07-5.32-1.8-8-1-3.56,1.07-8.9,4.86-12,6l-28-1v6c-5.08-.11-13.24-2.81-16-2-.93.27-3.1,3.48-4,4-4.73,2.71-13.15,4.71-18,6-2.46.66-15.45,2.06-16,2-1-.11-4.32-2.49-6-2s-4.17,4.29-6,5c-4.77,1.85-6.17-1.6-11,0-2.58.85-5.66,4-9,5-7.46,2.12-13.68-.13-22,2-9.55,2.44-20.31,6.29-30,8-3.12.55-4.87-1.72-6-2-2.72-.67-6.43,2.54-8,3l-10-1c-3.45,1-6.77,5.58-10,7-5.74,2.53-11.54-1.7-17,0-.81.25-2.42,2.74-3,3-10,4.45-23.6,3.45-35,3-4,5.72-12.2,8-17,13-7.42-.28-13.54-4.06-22-2-10.62,2.58-23,6.53-34,7-4-5.38-10.12-7.54-15-12-3-2.78-4.93-7.26-8-10-5.4-4.81-12.68-7.14-18-12-4.44-4.06-7.52-10-12-14-6.52-5.82-13.92-9.83-20-16-2.72-2.76-4.07-7.52-7-10-6.36-5.39-13.41-9.9-19-16-47.23-51.57-87.28-109.94-122-174-2.44-4.5-7.26-8.79-10-13-3.89-6-4.69-12.42-8-19-3.6-7.16-10.51-14.11-14-21-3.1-6.12-3-11.07-6-17-2.75-5.5-12.93-18.18-10-25,2.74-9,11.1-12,18-17,2.86-2,5.91-6.21,9-8,5.36-3.1,11.06-3.59,16-7l8-10c3.31-1.45,5.89,1.61,10,0,6-2.35,12.4-8.24,18-12,6.87-4.62,12.69-11.7,19-17,7.42-6.23,17-9.62,25-15,5.16-3.45,9.06-9.44,14-13,4.36-3.14,9.35-4,14-7,6.54-4.27,13.08-11,20-15,4.46-2.55,9.79-2.33,14-5,7.82-5,41-20,56-16,5.86,1.56,22.58,11,27,15,.92.83,1.08,3.18,2,4,5.43,4.8,12.58,7.22,18,12,9.46,8.36,16.59,19.61,26,28,16.84,15,37.32,26.82,53,43Z" />
  </g>
  <g id="back" style="isolation: isolate" class="shoepart">
    <path d="M2902,1786c9.61-.43,30.05-7.54,38-11,8.13-3.54,15.2-2.22,24-5,4.72-1.49,11.19-5.25,16-7,9.61-3.5,20-4.51,28-8l20-4c14.13-5.12,31.86-9.71,46-14l12-1c23.91-8,53.81-16.23,78-25,10.67-3.87,19.86-3.51,31-7,5.1-1.6,10.6-5.46,16-7,9-2.57,17.05-.52,25-2,.47-4,.7-4.74,4-6,10.28-6.72,29.48-7.44,42-12,29.16-10.63,61.69-19.47,90-32,8-3.53,15.47-2.9,24-6,70.61-25.69,144.59-50.26,212-80,6.1-2.69,12-1.7,18-4,20.34-7.76,42.34-17.12,62-26,3.76-1.7,6.13-.52,10-2,9.69-3.7,20.86-9.88,30-14s16.81-4.49,26-8c8.19-3.12,17.07-9.84,25-13,5.69-2.26,16.74.32,22-3,4.2-6.13,4.06-10.39,14-11l8,10c5.84,4,12.4,6,16,12,1.52,2.54.58,4.38,2,7,2.12,3.92,7.5,7.78,9,12,.33,3.33.67,6.67,1,10,2.8,5.65,8.78,11.06,12,16,.67,2.33,1.33,4.67,2,7,5.88,9.9,13,20.46,20,30,5,6.8,14.66,13.67,22,18,4.89,2.89,9.57.86,13,5,11,14.4,12.65,63.39,18,85v30c6.94,28.26,2.9,65.15,10,94v36c3.84,15.78,2,39.93,2,59v25c-1.39,5.69-.1,16.21-2,24-4,16.22-2.76,32.27-2,49h-1c-2.69-2.24-8.24-1.88-13,0-3.59,1.42-5.37,6.68-9,8-8.2,3-18-.39-27,2-11.69,3.12-31-1.46-44,2-26.92,7.17-61.72,6.69-89,14-8.4,2.25-14.32-.3-23,2-16.07,4.26-42,4.18-59,6h-39c-8.35,2.19-23.45-.76-34,2-6.67,1.75-23.37,4.49-33,2-8.41-2.18-37.78-4.92-49-2-9.56,2.49-23.12-3.38-36,0a52.75,52.75,0,0,1-14,2h-20c-8.94,2.35-24.85-.93-36,2-2.94.77-5.91,2-11,2h-23c-8.35,2.19-23.45-.77-34,2-35.87,9.43-87.25.63-123,10h-41c-11.11,2.92-29.57-1.27-42,2-14.77,3.89-36.87,2.29-51,6h-14c-9.82,0-24.77.26-33,3v-2c-3.63-5.52-2-14.78-5-21-4.37-9.12-10.38-21.7-14-31-2.1-5.38-1.53-10-4-15-4.42-8.87-11.33-19.67-15-29-2.25-5.71-2-10.86-5-16-6.2-10.58-14.16-22.88-20-34-9.65-18.37-16.37-36.68-28-53-3.55-5-9.11-10.39-12-16-1.39-2.71-.44-5.6-2-8l-12-10c-3.32-4.34-6.79-11.66-11-15-1.34-1.06-3.88-.78-5-2-2.94-3.18-1.73-9-4-13C2906.9,1799.82,2902.26,1798.16,2902,1786Z" />
  </g>
  <g id="behind_logo" style="isolation: isolate" class="shoepart">
    <path d="M2473,1287h3c5.38,9.12,7.56,18.07,12,29,.8,2,4.3,4.22,5,6,2.09,5.33-3,10.88,0,16,3.47,6,10.19,11.86,14,18,3.31,5.34,2.63,12.07,6,18,2.58,4.53,7.24,9.56,10,14l7,16c3.54,5.41,9.76,10.37,13,16q2,6,4,12c1.83,2.91,6.28,5.13,8,8,7.26,12.1,12,23.82,20,35,2.6,3.63,17.71,15.2,20,19,7.7,12.8,8.3,11.1,18,22,1.48,1.66,11.5,13.36,13,15,2.63,2.88,11.39,14.07,14,17s14.21,15,17,18c7.77,8.48,15.48,13.23,23,22,4.74,5.53,26.59,22,19.85,19.26-9.5-3.91,18.29,10.71,24.15,16.74,8.48,8.72,20.28,12.52,24,23-.33,0-9.52-4.71-5,1-2.38-2.88-2.66,1.89-7,1-4.35.36-12,0-12,1-4.61,1.36,1.87,3.2-7,2-29,7.47-17.66,1.21-26,5-14.95,6.8-36,6.78-53,11h-12c-29.37,7.08-82.26,8.77-110,2h-14c-6.39-1.6-15.23-2.42-22-5-9-3.41-17.38-10.79-26-14l-12-2c-3.29-1.63-12.39-9.15-15-12-2.83-3.1-3.75-9.43-7-12-5.72-4.52-11.94-3.59-13-13-2.86-4.46-1-10.36-3-16-1-2.74-4.91-5.29-6-8-7.8-19.52-14.77-61.45-10-80,1.66-6.44-1.05-14.13-2-18-1.59-6.5,1-14.07,2-18v-16c3.51-14.38,9.51-28.61,10-44-2.71-1.68-7-4.48-9-7-27,9.49-50.68,23.85-73,38-4.3,2.72-9,3.16-13,6-8.12,5.82-13.07,16.12-21,22-1.53,1.14-3.6.75-5,2-5.84,5.2-10.24,13.89-17,18-3.16,1.92-6.38,1.68-9,4-7.3,6.46-12.69,15.56-20,22-4.92,4.33-14.14,2.56-19,6-2.38,1.68-3.54,6.18-6,8-2.24,1.66-5.2,2-7,4-3.06,3.4-3.25,9.32-7,12-8.27,5.91-16.45,10.53-23,18-4.81,5.48-5.16,14.7-10,20-4.68,5.13-11.41,8.8-16,14-3.13,3.54-3.31,9-6,13-2.79,4.19-7.65,8.13-10,13q-1,5.51-2,11c-2.73,6.22-8.72,13.42-11,20v6l-6,16c-1.66,6,0,10.13-2,16-.55,1.65-3.46,4.35-4,6-2.38,7.31.84,19.4,2,24,1.46,5.77-.89,9.6-1,13-.06,1.84,7.14,19,8,23-.33,3.33-.67,6.67-1,10,.7,2.17,3.92,3.3,5,5q2,6,4,12c1.92,3.69,6.18,7.49,8,11,1.41,2.72.53,5.51,2,8,19.08,32.22,51,56.81,88,71,15.4,5.9,36.31,9.92,52,14h14c4.85,1.18,15.16,2.78,20,4h50c13.93,3.35,45.81,1.62,60-2,8.91-2.27,21.21-.26,28-2,11.2-2.86,20.39.93,32-2,42.34-10.7,89.51-15.32,130-26,10.24-2.7,16.95-1.34,27-4,26.87-7.12,58.43-12.69,84-22l26-5c25.19-8.65,55-14,80-23l20-3c17.11-5.86,38.44-15.87,58-15,6.74,10.58,18.05,18.68,25,29,3.92,5.82,5.09,12.34,9,18,3.34,4.83,9.9,8.86,13,14,23.37,38.78,47.22,77.59,65,122,3.6,9,11,19.18,15,28,2.5,5.57,1.78,10.3,4,16,7.06,18.11,14.07,31.73,19,54h-96c-12.24,8.29-50.66-2.25-68,2-20.54,5-47.78,3.07-68,8-10.72,2.61-25.51-.07-34,2-14.53,3.54-33.62-1.54-48,2-37.45,9.23-83,4.94-120,14-12.26,3-21.95-1-34,2-38.05,9.44-82,10.57-120,20h-18c-4,1-12,3-16,4h-16c-8.19,2-19.81,4-28,6h-12l-16,6c-6.94,1.81-11.41.19-18,2-5.39,1.48-12.31,4.58-18,6h-12c-21.14,6.84-46.43,10.79-70,16-.41-8.18-4.16-14.38-6-20v-10c-1.19-3.48-5.5-6.73-7-10-3.59-7.82-4.13-15.34-8-23-1.18-2.33-4.63-4.89-6-7-3.3-5.07-3-11.34-6-17-3.54-6.72-10.15-14.4-14-21-5-8.5-6.91-17.9-12-26-5.24-8.35-14.66-14.06-20-22-2.71-4-2.88-9.44-6-13-2.12-2.42-6.31-4.22-8-7-1.92-3.16-1.68-6.38-4-9-2.82-3.18-7.59-5.42-10-9s-2.57-7.67-5-11c-5-6.79-16.71-13.71-23-20-2.34-2.34-3.67-5.65-6-8-.92-.93-3.15-1-4-2-3.07-3.48-3.33-9.16-7-12-6.47-5-14.91-8.45-21-14-3-2.77-4.92-7.27-8-10-4-3.53-10.11-4.41-14-8-2.68-2.47-4-6.89-7-9-20-13.9-38.89-27.45-57-43-3-2.58-7.13-3.33-10-6-3.44-3.2-4.66-8.7-8-12-3-3-6.89-1.84-11-4-3.6-1.9-6-7.33-9-10-8.3-7.38-18.54-11.84-26-20-5.5-6-7.8-11-15-15-5.3-3-5.65-15.23-13-16-13.33-1.39-7.89-9.59-14-15-4.34-3.84-8.21-9.67-12-14-3.32-3.8-1-7.17-3-13-.76-2.24-4.12-4.24-5-6-2.24-4.47-1.5-8.26-4-12-1.91-2.85-6.3-5.13-8-8-1.33-4-6.67-8-8-12-4.06-6.45-8.34-13.19-7-18,18.4-.2,29.56-15.74,42-23l8-2c2.17-1.33,6.54-7,8-8,7.64-5.22,14.49-8.6,22-14l8-10c11-7.86,22.72-13.26,34-21,6.84-4.7,14.74-12.79,22-17,22.92-13.28,48.57-21,74-32l10-1c5.81-1.58,11.26-5.23,16-7l13-2c11.05-5,24.88-8.45,36-14,6.17-3.08,13.09-9,19-12,3.77-1.91,6.78-1,10-3,10.81-6.9,21.28-16.71,32-23,6.24-3.66,13.59-5.41,19-10,14.52-12.33,29.65-26.87,45-38,6-4.38,13.42-7.06,19-12,8.44-7.47,17.48-15.65,27-22,3.88-2.58,8.25-3.24,12-6l3-5h6c6.05-2.2,10.8-8.36,16-11,7.63-3.87,20.68-3.58,28-8,.33-1,.67-2,1-3,.05,0,10-7,10-7,5.53-2.84,11.09-1.39,17-4,17.95-7.92,37.62-17.09,55-26C2445.8,1304,2476.73,1300.41,2473,1287Z" />
  </g>
  <g id="top_back" style="isolation: isolate" class="shoepart">
    <path d="M3828,1048c0,2.72,0,4.6,1,6,3.19,9.93,15.53,13.53,20,22,8.67,16.42,14,46.52,19,66v10c2,7.53,6,16.06,8,24v14c1.73,7,3.47,16.6,5,24s-6.14,10.17-3,18c.78,2,2.87.73,4,2,1.57,1.77,0,4.42,1,7,.28.74,2.8,2.49,3,3q-.49,10-1,20c.43,2.5,3.19,3.1,3,6-.2,3.12-3,5.42-2,8,1.47,2.53.44,1.54,4,2,1.41,24.5-.38,50.66,6,76v10c1.62,4.61,6.52,8.28,8,14v22c1,4,3,12,4,16,1.93,7.82-1.64,15.48-1,20,2.5,17.54,4.59,34.66,9,52,3.46,13.6,6.68,30.85,10,44,2.1,8.33,0,13.94,2,22,3.35,13.36,5.71,33.87,1,46-3,1.3-7.89,3.33-12,1-2.83-1.61-2.18-5.26-4-8s-5.58-3.77-8-6c-3.07-2.83-5-7-8-10-6.93-7-14.92-14.3-20-23-.33-2-.67-4-1-6-1.28-2.41-5.13-3.11-7-5-4.91-5-6.87-12.19-11-18-1.67-2.35-5.54-4.48-7-7s-.56-4.37-2-7c-3.14-5.73-22.33-24.6-28-28l-10-6c-1.67-.28-5.41,1.24-9,0-5.89-2-10.19-9.09-16-11h-10c-4.17-1-10.33-3.7-14-5l-12-2-6-7c-5.42-2.78-11.24-.3-18-2a171.37,171.37,0,0,1-22-7c-4-1.58-6.73-7.88-10-9-1.6-.55-5,1.83-6,2-1.16.21-13.94-1.27-16-2-3.75-1.34-6.23-6.71-10-8-7.62-2.61-11.47,4-18,2-2.18-.68-5.62-4.12-8-5-10.57-3.88-24.88-2.79-32-10-3.77-3.82-6.06-7.18-12-9l-10-1c-2-1-4.85-4.84-7-6-4.36-2.35-13.39-3-16-7,2.39-.84,1.64-.4,3-2h-3c-3.89,2.38-7.93-1.37-13-2-.54-7.06-2.22-7.22-2-14,17.24-1.11,30.22-11.12,39-21,3.45-3.88,4.65-10.09,9-13,3.58-2.39,7.91-2.26,11-5,9.06-8,16-18.83,25-27,2.52-2.29,5.91-2.18,8-5,1.52-1.89,1.79-3.59,2-7,6.2-.21,13.22-3.27,15-8,1.62-2.59.41-6.93,2-10,2.45-4.73,10.47-7,14-11,2.62-2.93,3.41-7.07,6-10s6.73-5.46,9-9c1.47-2.29,1.26-5,3-7,5.38-6.1,12.46-12.14,17-19,5.41-8.19,8.32-17.1,14-25,7.73-10.75,18-21.85,25-33,5.5-8.8,6.57-19.92,12-29,3.46-5.79,10.21-9.7,14-15s6.72-11.07,10-16c2.38-3.57,5.64-8.1,7-12,.33-2.67.67-5.33,1-8,3.88-7.57,14.95-12,20-19C3812.17,1057.84,3816.75,1048.89,3828,1048Z" />
  </g>
  <g id="front_top" style="isolation: isolate" class="shoepart"> 
    <path d="M1552,1754l6,1c4.19,6.48,12.23,13.84,15,21l3,15c-.09,1.33-1.82,3.39-1,6,.9,2.86,4.81,7.66,6,11,4.8,13.48,3.67,32.66,7,46s3.51,40.32-1,52c-1.71,4.43-7,6.37-9,10-.33,2-.67,4-1,6-1.75,2.7-6,3.62-8,6-3.54,4.18-5.93,9.43-10,13-3.36,2.94-9.09,2.53-13,5-3.09,2-7,7.68-10,9-4.75,2.09-7.31-1.59-12,0-19.5,6.63-43.83,12.53-64,19h-17c-2.9.18-5.06,1.52-7,2h-46c-5.63,1.63-11.64,6.39-18,8s-11.52-2.49-16-2c-32.49,3.54-73.13-1.62-104,6-6.94,1.71-15.72-.94-20-2h-24c-2.08-.51-4.58-2.66-8-2-6,1.16-19.12,4.21-28,2-3.93-1-9.78-4.81-16-3-12.68,3.69-38.87,2.48-54-1l-14,1c-23.92-5.14-55.3.6-78-5H980c-11.56-2.86-36-4-49-4H898c-10.71-2.66-26.81-3.24-38-6-11.88-2.93-28.36.32-38-2-5.9-1.42-9.82,2.52-14,2-4.64-.58-10-4.84-14-6H776c-4.26-1.13-8.08-4.93-12-6-5.09-1.39-8.15,2.45-12,2-8.67-1-17.61-5.88-24-8-6.62-2.19-11.57-.18-18-2-4.65-1.32-9.16-4.73-14-6-8.92-2.35-16.33.44-26-2-6.19-1.56-14.33-4.55-20-6H634c-6.18-1.57-12.84-5.12-18-7l-22-3c-13-3.61-29.24-8.48-42-12-17.51-4.83-29.72-5.64-44-13-6-3.08-11.43-1.4-13-9,.8-1,.35-.27,1-2,14.4.32,18-3,27-6l23-1c4.84-1.36,9.74-5.57,14-7l25-2c4.07-1.08,9.21-3.84,13-5,13.58-4.16,29.75-4.7,43-8l30-3h16c23.83-6.44,48.81-9.23,74-15l43-4c8.44-2.4,17.8-6.77,27-9l49-3c6.81-1.86,16.54-3.14,24-6,2.4-.92,5.58-4.14,8-5l33-4h17c1.48-.49,3.81-3.52,5-4l17-2c1.65-.57,4.34-3.45,6-4,9.18-3,17.75.58,28-2,4.81-1.21,10.12-4.75,14-6h22c13.44-3.38,30.88-6.66,44-10h8c12.86-3.32,23-12.28,35-16,5.94-1.84,15.09-1.79,20-3h12c4-1.6,4.48-4.49,11-5,3.32,17.53,21.42,35.72,35,43,4.36,2.34,8.26,1.65,13,4,2,1,4.8,4.92,7,6,11.42,5.63,30,7.86,43,11,15.66,3.77,43.08-1.11,54-4,6.1-1.62,9.91-.35,16-2,30.26-8.18,61.81-16.6,90-27,16.29-6,33.18-9.58,48-16l12-2c8.82-3.27,18.79-8.7,28-12C1536.78,1756.57,1546.56,1757.92,1552,1754Z" />
    <path d="M1578,1900c1,.8.27.35,2,1C1579,1900.2,1579.73,1900.64,1578,1900Z" />
  </g>
  <g id="front_middle" style="isolation: isolate" class="shoepart">
    <path d="M1820,1655c8,2.21,6.42,8.79,11,14,2.12,2.41,6.32,4.22,8,7,1.93,3.2,1.71,6.31,4,9,1.39,1.63,5,3.11,6,5,.67,3,1.33,6,2,9,1,1.93,4.25,4.72,5,7,.33,3.33.67,6.67,1,10,1.74,3,6.06,5.18,8,8,4.68,6.81,8,14.61,14,20,2.8,2.51,8,2.77,10,6,4.1,6.51,6.52,12.12,12,17,3.15,2.81,7.48,3.59,10,7,2.29,3.1,3.35,6.35,6,9,6.38,6.38,15.31,9.89,22,16,2.54,2.32,4.07,6,7,8,3.82,2.57,9.74,2.86,13,6s4.56,8.88,8,12c2.9,2.63,7.06,3.44,10,6,11.8,10.28,23.74,18.89,37,28,1.94,1.33,3.23,4.48,5,6,4.57,3.92,10,5.5,15,9,3,2.1,4.3,6.58,7,9s5.84,2.09,9,4c5.21,3.15,8.51,10,13,14,5.53,4.9,13.13,7.65,19,12,6.14,4.55,11.15,16.15,17,22,6.95,7,19.51,14.42,25,22,2,2.78,2.05,6,4,9,3.3,5,9.6,8.24,13,13,1.95,2.73,2.05,6.26,4,9l8,7c2.84,4.34,3.1,9,6,13,4.45,6.13,12.05,10.12,16,17,.67,3,1.33,6,2,9l6,5c.67,2.33,1.33,4.67,2,7,2.64,4.45,7.67,9.49,10,14,1.4,2.71.45,5.58,2,8,1.28,2,4.85,3.77,6,6,2,3.95,1.18,7.93,3,12,1.9,4.25,6.94,8,9,12,4,7.85,4.13,15.05,8,23,1.52,3.11,5.91,6.81,7,10v11c2,6,4.65,7.8,5,18-6.47,3.51-18.18,4.95-26,7h-19c-11.8,3.15-30.51,4.73-43,8h-23c-9.92,2.61-26.1,3.64-35,6h-25c-43.28,11.42-101.23,4.56-145,16-6.82,1.78-16.59.59-22,2h-14a75.81,75.81,0,0,0-18,2h-25c-26.65,7-64.46,3.06-91,10-9.35,2.44-22.83.13-30,2h-37c-7.76,2-22-.59-32,2-11.7,3.05-31-1.39-44,2-21.31,5.53-54.1,2-79,2-8.69,0-18.12.47-24,2h-33c-18.79,0-42.06,2.42-59-1l-10,1a61.71,61.71,0,0,0-14-2c-19.53,0-44.84,2.2-61-2h-23c-2.81-.74-10.17-3.63-13-4-2-.27-3.81,1.7-5,2h-40c-5.42-1.42-18.66-4.14-27-2-3.46.89-10.84,3.61-17,2-22-5.74-51.44-.12-74-6h-30c-15.23,0-22.65-3-38-3h-28c-1.58-.53-4.42-3.47-6-4H985c-2.45-.67-6.55-3.34-9-4-10.33,0-20.67-1-31-1-7.76-2-22,.62-32-2-22.59-5.94-50.83-1.95-74-8-11,0-23-2-34-2-2.94-.77-5.91-2-11-2H779c-1.58-.54-3.42-3.46-5-4h-9c-2.21-.65-17.79.63-20,0-2.76-.79-15.38-2.41-17-2-2.72.69-11.81-.52-17-2-2.21-.63-4.79-3.37-7-4H679c-3.39-.9-11.61-3.11-15-4H647c-10.66-2.82-26.5-3.25-37-6H589c-5.22-1.38-17.78-2.63-23-4H553c-15.89-4.22-35.14-5.84-51-10H487c-3.8-1-13.2-3-17-4H459c-21.31-5.73-46.63-9.08-68-16-11.18-3.62-25.82-13.26-39-11v-8c5.53-8,5.27-17.77,9-28,2.73-7.49,7.36-17.11,10-24,3.23-8.44,2.44-16.07,6-24,14.73-32.87,25.34-68.23,48-93,5.33-5.83,12.75-10.11,18-16,2.61-2.92,3.45-8.15,7-10,4.72-2.46,9.43-.81,13-4,2-1.78,2.32-4.8,4-7s15.93-11,19-12c5.66,3.9,12.6,3.48,20,6,4.42,1.5,8,5.33,12,7l8,1c3.39,1.31,6.48,5.62,10,7,10.07,4,22,6.24,32,9h6c3.5,1.21,8,4.69,12,6,12.19,4,26.82,6.39,38,10,5.92,1.91,12.85-.84,18,1,5.42,1.94,11.8,5.39,18,7,12,3.13,24.86-1.37,38,2,43.51,11.16,103.24,11.47,148,22h27c10.49,2.35,25,4.11,34,7h29c7.19,1.7,20.37,3.09,28,5,13.48,3.37,26.9-4.64,38-2,9.76,2.32,25.88-.66,38,2,9.4,2.07,43,6.72,54,4,3.51-.86,10.45-3.51,14-4,7.31-1,20.64,4.49,31,2,11-2.64,18.59,4.31,32,1,12.25-3,16-1,29-1,8,0,13.7-2.39,20-2,2,.13,4.6,1.65,6,2,8.22,2,39-2.38,46-4,3.8-.88,11,3.16,16,1,1.14-.49,2.53-3.49,4-4l30,1c10.25-2.55,28.15-3.49,38-6,7.55-1.93,14.86,2.45,20,2,13.23-1.16,31.31-2.8,44-6,13.62-3.43,29.15,1.75,42-2,26.28-7.67,56.88-16.46,77-31,22.35-16.14,50.75-49.45,39-93-3.13-11.58,1.92-20.8-1-31-2.5-8.73-6.65-20-9-28-2.12-7.23-.65-12.46-3-19-1.37-3.83-5.6-10.21-4-14,3.38-9.25,15.75-13,25-16h10l6-7c4-2.42,8.63-1.9,13-4,7.75-3.72,17.46-8.62,25-12,5.43-2.44,9.83-.88,16-3,13.11-4.51,30.22-10.14,44-15l10-1c5.65-1.53,12.61-4.59,18-6h8c1.68-.56,4.34-3.38,6-4,10.07-3.78,19.34-2.65,30-6,3.43-1.08,6.73-4.94,10-6l13-1c1.5-.79,3.36-4.29,5-5C1811.42,1658.77,1814.31,1660.61,1820,1655Z" />
  </g>
  <g id="sko_saal" style="isolation: isolate" class="shoepart">
    <path d="M3923,1603c2.08.37,1.92.24,3,1C3923.92,1603.63,3924.08,1603.76,3923,1603Z" />
    <path d="M3978,2286h6q-.49,10-1,20c-1.64,3.43-6.54,4.88-5,12,1.58,7.33,2.24,22.7,4,30v12c2.58,8.15,11.32,18.63,8,32-.75,3-3.25,7-4,10-2.34,9.4,4.43,20.14,1,26-2.34,7.16-10.71,9.4-13,16-3.6,10.36,1.71,17.37-5,25-5.89,6.69-19.06,12.63-24,19-2.05,2.65-1.83,6.54-4,9s-6.2,4-8,7c-2.27,3.77.32,6-4,8-3.84,2.49-15.23,1.13-21,1-3.61,5.6-7.87,9.94-15,12h-7c-2.68,1-4.31,5.06-7,6h-15c-2.06.71-4.19,4.11-6,5-3.77,1.85-13.83,2.17-17,3h-21c-1.58.53-3.42,3.47-5,4h-23c-1.58.53-3.42,3.47-5,4h-17c-1.54.52-3.45,3.56-5,4l-10-2c-10.12-.56-15.26,7.07-26,4-4.85-1.39-8.13-5.87-14-7-6.23-1.2-7.94,3.83-12,5h-37c-.33-3.33-.67-6.67-1-10l-3-1c-1.84-1.24-5.7-1.09-9-1l-4,13c-4.23,1.38-6.84,4.84-11,6h-26c-2.62-5.28-5.88-4.11-6-13h-16c.07,6.26-.3,12.79-1,16-9.85,3.3-27.21,1.08-39,1-1.17-5.71-3.8-5.24-4-13h-18c-.12,6.26-.56,8.79,0,14-14.9-.1-31.53-1.84-44-2v-10c-6.82-.1-14.66-.08-20,1-.33,1-.67,2-1,3-2.45,3.53-.08,7.31,1,10h-2c-4.89,3.11-31.81,1.11-40,1-1.17-5.71-3.8-5.24-4-13h-20c0,6.58-.18,8.9,0,14h-2c-2.74,1.81-41.25,1.8-44,0,2.79-1.92.42-6.39,0-12a68.63,68.63,0,0,0-14,1c-1.17,2-4.18,4.12-5,6-1.14,2.6,1.23,6.63-1,8h-42c-.44-5.29-1.84-6.79-2-13h-22c-.16,5.76.43,9.56,2,13h-2c-6,4.25-33.52,2.12-44,2v-1h-1c.56-4.63.07-11.08-5-13-3.4-2.32-12.4-.81-16,0-.33,1-.67,2-1,3-2.14,3.11-.21,6.47,1,9h-2c-7.06,5-29.09,2.14-40,2v-1h-1c-.84-4.86-2.66-6-3-12-6.82-.1-14.66-.08-20,1-.33,1-.67,2-1,3-1.66,2.07-1.91,4.16-2,8-11.95-1.41-28-.56-40,0-1-3.82-3.24-11.5-7-13-3.32-2.17-12.86-1.13-18-1a107.41,107.41,0,0,0,1,15c-12.22-1.58-30.44-2.59-44-1v-2c1-2.14-.66-5.56-1-10h-22c-.44,6.55-2.05,7.73,0,12-12.83,2.48-29.65,4.13-44,1-.17-5,1-10-4-12-3.32-2.17-12.86-1.13-18-1-.19,5.46-.78,7.67,0,12h-4c-5-3.16-32.66-1.11-41-1-.33-3.67-.67-7.33-1-11h-20l-2,3c-1.66,2.07-1.91,4.16-2,8-15.64-.08-28.26,1.88-42,2-.89-4.9-1.81-7-3-13l-3-1c-3.4-2.32-12.4-.81-16,0-.33,1-.67,2-1,3-1.93,2.95-.33,6.85,0,11h-43a39,39,0,0,1-2-13h-20c-.16,5.09-1.34,6.6-2,11-14.19-.08-30.4-.49-43,1-1-2.89-1.06-7.67-1-12h-20v15c-9.35.14-42.46,2.52-48-1,3.52-2.05,1.87-8.49,1-12l-3-1c-3-2-11.28-1.13-16-1-.24,8.2,1.26,10.52,4,15h-6c-8.16-5.85-37.49-.58-47,0v-2a15.61,15.61,0,0,1,5-1c-.33-3.33-.67-6.67-1-10l-3-1c-3.32-2.17-12.86-1.13-18-1-.11,7,1.12,11.18,2,16h-2c-4.15,2.75-42.08,1.29-45-1,1.74-3-.71-7.62-1-13-6.24-.1-13.21,0-18,1-.33,1-.67,2-1,3-1.27,1.83-1.71,5.26-2,8-12.53,1.37-30.41,1.09-43,2v-2c.26-.7.08-6.4,0-10h-20c-.15,6-.9,9.19,0,14h-2c-5.25,3.33-35.2,1.11-44,1,.22-4.14,0-7,0-13a81.77,81.77,0,0,0-16,1c-1.66,4.33-.64,11-4,13-5.79,3.66-40.28,1.11-50,1v-1h1c1.55-1.5,1.84-.78,3-3,1.45-2.41.21-6.57,0-11l-13,1-3,4c-2.49,3.1-1.59,5.71-1,10-13.36,1.78-33.67,2.88-47,0,1.31-4,.19-7.53,0-13h-18q-.49,7-1,14c-3.13,1.08-8.41,1.06-13,1-5.29,4.09-29.5,3.48-32-2v-10c-6.24-.1-13.21,0-18,1l-4,13h-45v-1c2.34-3.41,1.19-6.28,1-12h-16c-2.61,3.93-5.17,7.81-3,14a237.59,237.59,0,0,1-25,1v-3h-16v3h-5a127.34,127.34,0,0,0,1-15h-20c-.13,6-1.34,10.81,0,15h-45c1.1-9.28-4.27-13.72-17-13-1,.8-.27.35-2,1-1.22,2.89-1.81,8.52-3,12a15.61,15.61,0,0,1-5,1c-4.71,3-30.12,1.11-38,1a25.25,25.25,0,0,1-1-8c-1-1.55-1-4.09-1-7h-22v15h-44v-15h-22q-.49,7-1,14c-10.91,3.65-30.08,1.08-43,1a62.82,62.82,0,0,0-1-13l-3-1c-3.4-2.32-12.4-.81-16,0-3,4.68-3.66,8.21-4,14h-44c.63-5.54,2.08-7.32,1-13l-3-1c-3.92-2.63-15.82-.92-20,0-.33,1-.67,2-1,3-1.14,1.69-1.07,4.9-1,8h4v1h-2c-4.65,4.05-33.6,2.14-43,2,.59-4.55.89-8.6,0-13l-3-1c-3.92-2.63-15.82-.92-20,0-.33,1-.67,2-1,3-2,2.95-.52,7.59,0,11-11.65-1.59-32.54-4.28-44,0v-5c1.14-1.69,1.07-4.9,1-8-7.41-.1-16.1-.18-22,1-.33,1-.67,2-1,3-1.62,2.54-.12,6.27,1,9h-32c-2.31-1.54-8.11-1.12-12-1a56.45,56.45,0,0,0-1-12l-3-1c-3.67-2.39-14.44-1.13-20-1q-.49,7.5-1,15h-43v-15h-22c-.33,2.67-.67,5.33-1,8-7.56,5-16.24,4.19-29,4-3.79,3.07-10.86,1.75-16,1,0-6.74-1.62-8.81-2-15-3.87-.15-9.72-.54-12,1-4.71,1.66-7.94,7.56-11,11-11.76.34-38.57,3.42-42-5-1.14-1.69-1.07-4.9-1-8h-14c-2.78,4.51-7.36,10.34-14,11-6.21,4-25.09.61-32,0-1.78-2.88-5.31-4.37-7-7-3.62-5.63-3.37-6.24-13-6-2.7,4.15-6.66,6.55-10,10-7.51.14-31.54,1.86-36-1-4.23-1.28-6.58-3.73-7-9-.8-1.18-.77-1.68-1-4h-10c-8.36,12.95-30.65,10.29-52,10-.37-5.52-1.78-7.94-2-14h-10c-10,15.56-29.37,10.33-52,10l-2-3c-2-2.52-2.1-6.21-2-11-10.24.91-13.06,7.67-20,11-6.26,3-34-.48-42-2-1.27-3.05-3.13-11.29-6-13-2.73,2.87-8.38,7.44-12,9s-37,2.84-42,1c-5.41-2-3.75-9.21-8-12-4.5,3.88-42.71,11-52,5-6.46-2.25-5.52-7.38-14-8-5.81,5.15-41.69,3.85-50,1-2.85-1-5.1-5.1-10-4-2.29.51-5.44,3.29-8,4-13.91,3.85-32.7-1.51-42-4H712c-9.1-2.29-19.16-4.83-28-7-9.14-2.25-12.65,5.37-22,3-5.13-1.3-10-5.61-14-7-7.49-2.62-12.28,4.93-20,3-4.8-1.2-9-5.44-13-7-6.66-2.61-13.72,3.73-19,3-5.62-.77-9.36-6.87-14-8-1.74-.42-4.9,1.72-6,2-6.6,1.69-11.74-1.77-15-3-3.44-1.3-6.73,1.35-9,1-5.66-.87-9.36-6.36-14-8-5.84-2.06-19-2.33-23,0-4.95-3-10.93-9.21-17-11-5.77-1.7-7.95,3.44-13,2-.73-.21-2.51-2.81-3-3-2-.77-4.54.92-5,1-.71.13-17.3-1.26-20-2-6.25-1.72-28.95-10.79-34-8l-3-4c-2.59-1.67-4.82-.56-8-2-5.07-2.29-12.55-7.14-18-9H384a99.92,99.92,0,0,1-14-5c-7.76-3.9-14.87-11.53-22-16-9.24-5.79-19.84-8.31-27-16-4.27-4.58-3.42-11.39-7-17-3.88-6.09-13.62-9.43-17-16q-.5-10-1-20c-1.89-5.73-8.2-9.6-10-16-3.06-10.89,6.12-18.53,3-27-.91-2.47-4.44-5.73-5-9-1.51-8.74,6.84-17.16,8-24,.93-5.48-5.74-9.78-4-16,1.08-3.84,5.72-8,7-12,2.85-8.81-6.21-14.17-3-24,1.74-5.35,7.73-12.33,9-18l-3-10c1.75-18.09,2.41-42.85,6-60,8-4.91,18.09-7.66,19-20-4.85-3.52-4.66-7.08-4-14,5.63-3.71,9.13-11.91,15-15,3.58-1.89,16.22-5.6,18-8,.93-1.26.36-5,1-6,6.13,9.25,23.42,8,34,13,28.47,13.53,66.7,14.24,100,23h15c7.25,1.92,18.4,4.24,25,6h11c14.71,3.92,35.44,3.92,51,8h21c20.68,5.47,48.65,4.66,69,10h25c2.21.64,4.79,3.36,7,4,10.12,2.95,24.41,1.49,34,4l41,1c38.39,9.75,90.46,7,130,16h26c8.45,2.07,23.36-.69,34,2,3,.76,7,3.24,10,4h40c1.64.52,4.36,3.48,6,4h38c27.06,6.6,63.87-.37,90,6h20c19.26,4.69,34.24,1.7,56,2,11.31.16,24.28,2,38,2,6.12,0,11.91-2.42,16-2,3.48.36,10.56,3.16,14,4l22-1c14.2,3.6,36.52,2,54,2,20.63,0,32.29,2,54,2,22.8,0,52.71,3,72-2h23c24.28,0,56.28,3.4,77-2h17a181.9,181.9,0,0,0,28-2h28c10.53-2.77,28.14,1.12,40-2,7.17-1.89,20.65.46,30-2,26.52-7,64.35-3,91-10h25a75.29,75.29,0,0,1,18-2h14c5.41-1.43,15.2-.2,22-2,43.71-11.54,101.7-4.64,145-16h25c29.93-8,71.64-6.2,101-14h19c10.16-2.7,23.45-5.42,33-8,7.87-2.13,13.19.3,21-2,22.45-6.62,50.59-11.63,73-18,7-2,11.69,0,19-2,4.54-1.27,10.46-4.76,15-6h13c7.69-2.05,19.31-4,27-6h17c3.39-.9,11.61-3.11,15-4h19c26.95-7.22,62.72-9.07,89-16h15c9-2.39,23.45-3.5,33-6h17c16.79-4.43,38.6-3.7,55-8h19c19.69-5.18,45.48-2.89,65-8h29c8.35-2.19,23.45.77,34-2,19.73-5.17,46.94-2.76,67-8h52a64.34,64.34,0,0,0,16-2h113c7.18-1.88,20.65.45,30-2,14.14-3.71,36.21-2.14,51-6,12.45-3.25,30.88.9,42-2h23c14.79,0,29.05-.88,41-4h23c14,0,34.87-.83,47-4h22c4-.1,5.66-1.39,8-2,10.55-2.76,25.65.18,34-2h31c21.62-5.66,51.47-.38,73-6,8.37-2.18,21.54.69,27,2,4.24,1,6.78-1.43,9-2h46c6.66,1.71,23.38,4.53,33,2,8.35-2.19,23.45.77,34-2,22.29-5.86,53.37-.34,75-6h23c35.54-9.37,79.36-8.66,115-18h15c10.11,0,21.81-.12,29-2h15c2-.53,9-.91,12-2s4.47-5.42,7-7l14-3c-.06-2.9-.05-5.47,1-7,1,15,13.24,28.4,17,44,2.36,9.78-4.7,11.19-5,20,17.14,18.2,14.71,54.42,15,89,0,5,1.24,7.87,2,11v55c1.68,10.09,2,25,2,38v19C3976.81,2277.35,3977.93,2280.67,3978,2286Z" />
    <path d="M3484,2563c2.72,0,4.6,0,6,1C3487.28,2564,3485.4,2564,3484,2563Z" />
  </g>
  <g id="swoosh_logo" style="isolation: isolate" class="shoepart">
    <path d="M2397,1403c1.36,13.35-5.37,38.72-9,52v17c-1,3.68-.83,10.39-1,17-.18,6.89.41,16.38,0,23-2,31.89,6.59,56,13,79,0,3,4,4,4,7,1.62,5.76,14.59,25.18,18,30,20.68,29.19,30.09,17.52,82,42,9.12,4.3-11.08-3.7,26,1,14.63,1.85,37.08,4.77,52,1h21c7.44-.16,16.68-2.4,23-4h12c36.67-9.32,80.33-13.89,113-23l21-1c8.79-2.24,19.74-5.78,28-8,6.37-1.71,10,.23,16-2,2-.74,3.38-4.32,5-5,2-.84,4.55.91,5,1,5.36,1.11,16.92-.67,22-2,3.58-.94,8.28-4.15,11-5l13,1c8.06-2.34,20.16-7.09,30-9,3.13-.61,4.84,1.53,8,1,9.45-1.57,20.51-5.59,30-8,9.78-2.49,17.64.29,26-3,1.57-.62,3.41-3.48,5-4,4.84-1.58,6.22,1.84,11,0,1.84-.71,4.35-4.51,6-5s5,1.87,6,2c.38,0,13.61-1.38,16-2,4.84-1.25,13.27-3.31,18-6,.9-.51,3.08-3.73,4-4,2.89-.84,10.77,2,16,2v-6l27,1c3.45-1.27,9.28-4.83,13-6l10,1c7.82-1.13,22.35-5,30-7,4.3-1.14,28.18-7,32-6,7.11-3,19.69-4.13,28-7,8.71-3,19.41-3.84,28-7s22-4.86,30-7h12c2.37-.7,5.35-3.28,8-4,4,0,15-9,19-9,8.13-2.4,26.46-8.21,34-11,12.3-4.54,7.95,2.48,20-1,4.67-.67,14.33-6.33,19-7,3.19-1.41,2.19-2.73,6-4,6.33-1,21.67-5,28-6,14.23-4,24.47-8.27,39-13,4.67-.67,20.33-3.33,25-4,42.82-15.33,80-19.56,124-34,6.39-2.09,20.8-6.62,28-9,4.54-1.5,1.53,1.45,5-1s11.46-4.48,15-6l10-1c18.44-4.79,23-2.69,41,2l18,1c27.36,9.23,57.68,12.06,82,24,9.41,4.62,27.12,3.28,31,13,.75,1.07.6,1,1,3-16.86,8.34-33.92,18.21-51,26-9,4.1-16.83,4.48-26,8-9.49,3.64-20.66,9.8-30,14-5.21,2.35-10.07,1.54-15,4-17.88,8.91-38.93,15.88-57,24-7.51,3.38-15.49,2.39-23,6-32.91,15.83-71.76,26.88-105,42-7.41,3.37-14.37,3.08-22,6-23.85,9.11-50.79,17.57-74,28-9.66,4.34-20,4.17-30,8-36.52,13.94-78.09,24.36-114,40-9.34,4.07-18.71,2.54-28,6-47.17,17.57-102,30.85-150,47h-8l-24,8-24,5c-10.42,3.91-23.17,7.67-34,11-5.71,1.76-10.4,1-16,3-44.63,16.21-95,27.35-140,43l-20,3c-23.63,8.46-53,12-76,22l-30,6c-35,12.68-73.85,17.13-112,27-40.62,10.5-87.78,15.28-130,26h-16c-22.73,5.56-54.31,2-78,8-7.78,2-19-.72-24-2h-50c-5.31-1.33-20.53-4.5-27-1-16.59-9.28-40.78-10.66-60-18-21.82-8.33-42.52-21.89-60-35-3-2.22-3.44-6.41-6-9s-7.65-3-10-6c-15.08-19.29-27.31-39.76-35-67,0-16-5-36-5-52,.57-2.31-.17-4.18,1-8,4.91-16,4.23-15.2,7-25,2.84-10.07,3.53-20.88,7-30,.8-2.1,4-4.16,5-6,4.14-7.53,6.74-14.28,11-21,3.52-5.55,3.71-12.34,7-18,7.93-13.62,20.47-23,31-34,3.75-3.92,5.5-9.87,10-13,4.74-3.3,9.19-5.84,13-10,2.83-3.1,4.9-7.21,8-10,2.82-2.54,8.39-8,12-10,4.82-2.6,4.7-3,9-6,3.57-2.5,7.81-3.16,11-6,8.79-7.82,15.38-19.07,25-26,8.41-6.06,18.15-9.44,26-16,2.4-2,3.38-6.12,6-8,3.64-2.62,7.14-7.42,11-10,4-4.33,10-3.67,14-8,3-2,7.16-1.76,10-4,4.56-3.59,10.08-9,15-12l8-2c2.57-1.54,4.52-5.38,7-7C2362.82,1412.89,2385.4,1403.24,2397,1403Z" />
  </g>
  <g id="shadow" data-name="shadow copy 2 Billede">
    <image id="shadow_copy_2_Billede-2" data-name="shadow copy 2 Billede" width="4288" height="3039" transform="translate(-6.72)" xlink:href="shoe_configurator1.png"/>
  </g>
</svg>
